<mxfile host="app.diagrams.net" modified="2022-12-15T02:47:37.588Z" agent="5.0 (Windows)" etag="ApskKYWdVOUkWR4sxx-3" version="20.7.2" type="github" pages="4">
  <diagram id="xVGovlPmKFeodniBQi0L" name="admin-auth">
    <mxGraphModel dx="1434" dy="764" grid="1" gridSize="10" guides="1" tooltips="1" connect="1" arrows="1" fold="1" page="1" pageScale="1" pageWidth="850" pageHeight="1100" math="0" shadow="0">
      <root>
        <mxCell id="0" />
        <mxCell id="1" parent="0" />
        <mxCell id="gwkJoHBpJTp16ErwCsxA-2" value="" style="edgeStyle=orthogonalEdgeStyle;rounded=0;orthogonalLoop=1;jettySize=auto;html=1;" parent="1" source="yY78azoXwuCT2-wOPRoq-8" target="gwkJoHBpJTp16ErwCsxA-1" edge="1">
          <mxGeometry relative="1" as="geometry" />
        </mxCell>
        <mxCell id="yY78azoXwuCT2-wOPRoq-8" value="Mula" style="ellipse;whiteSpace=wrap;html=1;" parent="1" vertex="1">
          <mxGeometry x="360" y="40" width="120" height="80" as="geometry" />
        </mxCell>
        <mxCell id="yY78azoXwuCT2-wOPRoq-13" value="Gagal" style="edgeStyle=orthogonalEdgeStyle;rounded=0;orthogonalLoop=1;jettySize=auto;html=1;" parent="1" source="yY78azoXwuCT2-wOPRoq-11" target="yY78azoXwuCT2-wOPRoq-12" edge="1">
          <mxGeometry relative="1" as="geometry" />
        </mxCell>
        <mxCell id="9NJKgKRLnG9Fxok8oI2S-3" value="" style="edgeStyle=orthogonalEdgeStyle;rounded=0;orthogonalLoop=1;jettySize=auto;html=1;" parent="1" source="yY78azoXwuCT2-wOPRoq-11" target="9NJKgKRLnG9Fxok8oI2S-2" edge="1">
          <mxGeometry relative="1" as="geometry" />
        </mxCell>
        <mxCell id="yY78azoXwuCT2-wOPRoq-11" value="Berjaya?" style="rhombus;whiteSpace=wrap;html=1;" parent="1" vertex="1">
          <mxGeometry x="365" y="350" width="110" height="80" as="geometry" />
        </mxCell>
        <mxCell id="yY78azoXwuCT2-wOPRoq-12" value="Tamat" style="ellipse;whiteSpace=wrap;html=1;" parent="1" vertex="1">
          <mxGeometry x="570" y="350" width="120" height="80" as="geometry" />
        </mxCell>
        <mxCell id="9NJKgKRLnG9Fxok8oI2S-6" style="edgeStyle=orthogonalEdgeStyle;rounded=0;orthogonalLoop=1;jettySize=auto;html=1;entryX=0.5;entryY=1;entryDx=0;entryDy=0;" parent="1" source="9NJKgKRLnG9Fxok8oI2S-2" target="yY78azoXwuCT2-wOPRoq-12" edge="1">
          <mxGeometry relative="1" as="geometry" />
        </mxCell>
        <mxCell id="9NJKgKRLnG9Fxok8oI2S-2" value="Menggunakan fungsi" style="whiteSpace=wrap;html=1;" parent="1" vertex="1">
          <mxGeometry x="360" y="520" width="120" height="60" as="geometry" />
        </mxCell>
        <mxCell id="gwkJoHBpJTp16ErwCsxA-3" value="" style="edgeStyle=orthogonalEdgeStyle;rounded=0;orthogonalLoop=1;jettySize=auto;html=1;" parent="1" source="gwkJoHBpJTp16ErwCsxA-1" target="yY78azoXwuCT2-wOPRoq-11" edge="1">
          <mxGeometry relative="1" as="geometry" />
        </mxCell>
        <mxCell id="gwkJoHBpJTp16ErwCsxA-1" value="Pentadbir sistem akses menggunakan maklumat yang telah ditetapkan." style="shape=parallelogram;perimeter=parallelogramPerimeter;whiteSpace=wrap;html=1;fixedSize=1;" parent="1" vertex="1">
          <mxGeometry x="315" y="180" width="210" height="90" as="geometry" />
        </mxCell>
      </root>
    </mxGraphModel>
  </diagram>
  <diagram id="jOZRgqzHc3zDEfnNwa0L" name="admin-calon">
    <mxGraphModel dx="1434" dy="764" grid="1" gridSize="10" guides="1" tooltips="1" connect="1" arrows="1" fold="1" page="1" pageScale="1" pageWidth="850" pageHeight="1100" math="0" shadow="0">
      <root>
        <mxCell id="0" />
        <mxCell id="1" parent="0" />
        <mxCell id="ctU-aVxdXgB1GilYiGaZ-1" value="" style="edgeStyle=orthogonalEdgeStyle;rounded=0;orthogonalLoop=1;jettySize=auto;html=1;" parent="1" source="ctU-aVxdXgB1GilYiGaZ-2" target="ctU-aVxdXgB1GilYiGaZ-6" edge="1">
          <mxGeometry relative="1" as="geometry" />
        </mxCell>
        <mxCell id="ctU-aVxdXgB1GilYiGaZ-2" value="Mula" style="ellipse;whiteSpace=wrap;html=1;" parent="1" vertex="1">
          <mxGeometry x="390" y="40" width="120" height="80" as="geometry" />
        </mxCell>
        <mxCell id="Eda9ommeOE6060agyTa9-5" value="" style="edgeStyle=orthogonalEdgeStyle;rounded=0;orthogonalLoop=1;jettySize=auto;html=1;" parent="1" source="ctU-aVxdXgB1GilYiGaZ-6" target="Eda9ommeOE6060agyTa9-1" edge="1">
          <mxGeometry relative="1" as="geometry" />
        </mxCell>
        <mxCell id="ctU-aVxdXgB1GilYiGaZ-6" value="Memasukkan maklumat calon" style="shape=parallelogram;perimeter=parallelogramPerimeter;whiteSpace=wrap;html=1;fixedSize=1;" parent="1" vertex="1">
          <mxGeometry x="390" y="180" width="120" height="60" as="geometry" />
        </mxCell>
        <mxCell id="Eda9ommeOE6060agyTa9-6" value="Tiada" style="edgeStyle=orthogonalEdgeStyle;rounded=0;orthogonalLoop=1;jettySize=auto;html=1;" parent="1" source="Eda9ommeOE6060agyTa9-1" target="Eda9ommeOE6060agyTa9-3" edge="1">
          <mxGeometry x="-0.3333" relative="1" as="geometry">
            <mxPoint as="offset" />
          </mxGeometry>
        </mxCell>
        <mxCell id="Eda9ommeOE6060agyTa9-9" style="edgeStyle=orthogonalEdgeStyle;rounded=0;orthogonalLoop=1;jettySize=auto;html=1;entryX=0.5;entryY=1;entryDx=0;entryDy=0;" parent="1" source="Eda9ommeOE6060agyTa9-1" target="Eda9ommeOE6060agyTa9-8" edge="1">
          <mxGeometry relative="1" as="geometry" />
        </mxCell>
        <mxCell id="Eda9ommeOE6060agyTa9-11" value="Ada" style="edgeLabel;html=1;align=center;verticalAlign=middle;resizable=0;points=[];" parent="Eda9ommeOE6060agyTa9-9" vertex="1" connectable="0">
          <mxGeometry x="-0.35" y="-1" relative="1" as="geometry">
            <mxPoint as="offset" />
          </mxGeometry>
        </mxCell>
        <mxCell id="Eda9ommeOE6060agyTa9-1" value="semak untuk pertindihan calon" style="rhombus;whiteSpace=wrap;html=1;" parent="1" vertex="1">
          <mxGeometry x="390" y="290" width="120" height="80" as="geometry" />
        </mxCell>
        <mxCell id="Eda9ommeOE6060agyTa9-2" value="" style="edgeStyle=orthogonalEdgeStyle;rounded=0;orthogonalLoop=1;jettySize=auto;html=1;" parent="1" source="Eda9ommeOE6060agyTa9-3" target="Eda9ommeOE6060agyTa9-4" edge="1">
          <mxGeometry relative="1" as="geometry" />
        </mxCell>
        <mxCell id="Eda9ommeOE6060agyTa9-3" value="Maklumat calon disimpan di dalam pangkalan data" style="rounded=0;whiteSpace=wrap;html=1;" parent="1" vertex="1">
          <mxGeometry x="390" y="430" width="120" height="60" as="geometry" />
        </mxCell>
        <mxCell id="Eda9ommeOE6060agyTa9-4" value="Selesai" style="ellipse;whiteSpace=wrap;html=1;" parent="1" vertex="1">
          <mxGeometry x="390" y="520" width="120" height="80" as="geometry" />
        </mxCell>
        <mxCell id="Eda9ommeOE6060agyTa9-10" style="edgeStyle=orthogonalEdgeStyle;rounded=0;orthogonalLoop=1;jettySize=auto;html=1;entryX=1;entryY=0.5;entryDx=0;entryDy=0;" parent="1" source="Eda9ommeOE6060agyTa9-8" target="ctU-aVxdXgB1GilYiGaZ-6" edge="1">
          <mxGeometry relative="1" as="geometry">
            <Array as="points">
              <mxPoint x="640" y="210" />
            </Array>
          </mxGeometry>
        </mxCell>
        <mxCell id="Eda9ommeOE6060agyTa9-8" value="Papar mesej kesilapan" style="shape=parallelogram;perimeter=parallelogramPerimeter;whiteSpace=wrap;html=1;fixedSize=1;" parent="1" vertex="1">
          <mxGeometry x="580" y="240" width="120" height="60" as="geometry" />
        </mxCell>
      </root>
    </mxGraphModel>
  </diagram>
  <diagram id="-ssXL5OcE3o7rc1iweMc" name="admin-undian">
    <mxGraphModel dx="1434" dy="764" grid="1" gridSize="10" guides="1" tooltips="1" connect="1" arrows="1" fold="1" page="1" pageScale="1" pageWidth="850" pageHeight="1100" math="0" shadow="0">
      <root>
        <mxCell id="0" />
        <mxCell id="1" parent="0" />
        <mxCell id="AnQ1LzsxeLNXTYUD04th-3" value="" style="edgeStyle=orthogonalEdgeStyle;rounded=0;orthogonalLoop=1;jettySize=auto;html=1;" parent="1" source="AnQ1LzsxeLNXTYUD04th-1" target="AnQ1LzsxeLNXTYUD04th-2" edge="1">
          <mxGeometry relative="1" as="geometry" />
        </mxCell>
        <mxCell id="AnQ1LzsxeLNXTYUD04th-1" value="Mula" style="ellipse;whiteSpace=wrap;html=1;" parent="1" vertex="1">
          <mxGeometry x="390" y="40" width="120" height="80" as="geometry" />
        </mxCell>
        <mxCell id="AnQ1LzsxeLNXTYUD04th-7" value="" style="edgeStyle=orthogonalEdgeStyle;rounded=0;orthogonalLoop=1;jettySize=auto;html=1;" parent="1" source="AnQ1LzsxeLNXTYUD04th-2" target="AnQ1LzsxeLNXTYUD04th-6" edge="1">
          <mxGeometry relative="1" as="geometry" />
        </mxCell>
        <mxCell id="AnQ1LzsxeLNXTYUD04th-2" value="Mendapatkan jumlah undian" style="whiteSpace=wrap;html=1;" parent="1" vertex="1">
          <mxGeometry x="390" y="200" width="120" height="60" as="geometry" />
        </mxCell>
        <mxCell id="AnQ1LzsxeLNXTYUD04th-9" value="" style="edgeStyle=orthogonalEdgeStyle;rounded=0;orthogonalLoop=1;jettySize=auto;html=1;" parent="1" source="AnQ1LzsxeLNXTYUD04th-6" target="AnQ1LzsxeLNXTYUD04th-8" edge="1">
          <mxGeometry relative="1" as="geometry" />
        </mxCell>
        <mxCell id="AnQ1LzsxeLNXTYUD04th-15" value="Tidak" style="edgeLabel;html=1;align=center;verticalAlign=middle;resizable=0;points=[];" parent="AnQ1LzsxeLNXTYUD04th-9" vertex="1" connectable="0">
          <mxGeometry x="-0.3266" relative="1" as="geometry">
            <mxPoint as="offset" />
          </mxGeometry>
        </mxCell>
        <mxCell id="AnQ1LzsxeLNXTYUD04th-12" value="Ya" style="edgeStyle=orthogonalEdgeStyle;rounded=0;orthogonalLoop=1;jettySize=auto;html=1;" parent="1" source="AnQ1LzsxeLNXTYUD04th-6" target="AnQ1LzsxeLNXTYUD04th-11" edge="1">
          <mxGeometry relative="1" as="geometry" />
        </mxCell>
        <mxCell id="AnQ1LzsxeLNXTYUD04th-6" value="Adakah pengundian telah ditamatkan?" style="rhombus;whiteSpace=wrap;html=1;" parent="1" vertex="1">
          <mxGeometry x="371.25" y="320" width="157.5" height="90" as="geometry" />
        </mxCell>
        <mxCell id="AnQ1LzsxeLNXTYUD04th-10" style="edgeStyle=orthogonalEdgeStyle;rounded=0;orthogonalLoop=1;jettySize=auto;html=1;entryX=1;entryY=0.5;entryDx=0;entryDy=0;" parent="1" source="AnQ1LzsxeLNXTYUD04th-8" target="AnQ1LzsxeLNXTYUD04th-2" edge="1">
          <mxGeometry relative="1" as="geometry">
            <Array as="points">
              <mxPoint x="688" y="230" />
            </Array>
          </mxGeometry>
        </mxCell>
        <mxCell id="AnQ1LzsxeLNXTYUD04th-8" value="Tamatkan pengundian" style="whiteSpace=wrap;html=1;" parent="1" vertex="1">
          <mxGeometry x="627.5" y="335" width="120" height="60" as="geometry" />
        </mxCell>
        <mxCell id="AnQ1LzsxeLNXTYUD04th-14" value="" style="edgeStyle=orthogonalEdgeStyle;rounded=0;orthogonalLoop=1;jettySize=auto;html=1;" parent="1" source="AnQ1LzsxeLNXTYUD04th-11" target="AnQ1LzsxeLNXTYUD04th-13" edge="1">
          <mxGeometry relative="1" as="geometry" />
        </mxCell>
        <mxCell id="AnQ1LzsxeLNXTYUD04th-11" value="Papar jumlah undian" style="shape=parallelogram;perimeter=parallelogramPerimeter;whiteSpace=wrap;html=1;fixedSize=1;" parent="1" vertex="1">
          <mxGeometry x="355" y="480" width="190" height="65" as="geometry" />
        </mxCell>
        <mxCell id="AnQ1LzsxeLNXTYUD04th-13" value="Selesai" style="ellipse;whiteSpace=wrap;html=1;" parent="1" vertex="1">
          <mxGeometry x="395" y="617.5" width="110" height="80" as="geometry" />
        </mxCell>
      </root>
    </mxGraphModel>
  </diagram>
  <diagram id="LT5DiY_eN-h1djajwqyA" name="UML">
    <mxGraphModel dx="1434" dy="764" grid="1" gridSize="10" guides="1" tooltips="1" connect="1" arrows="1" fold="1" page="1" pageScale="1" pageWidth="850" pageHeight="1100" math="0" shadow="0">
      <root>
        <mxCell id="0" />
        <mxCell id="1" parent="0" />
        <mxCell id="hCdRQzONJW1zvobD3HLI-17" value="" style="edgeStyle=none;rounded=0;orthogonalLoop=1;jettySize=auto;html=1;endArrow=block;endFill=1;" edge="1" parent="1" source="hCdRQzONJW1zvobD3HLI-1" target="hCdRQzONJW1zvobD3HLI-13">
          <mxGeometry relative="1" as="geometry" />
        </mxCell>
        <mxCell id="hCdRQzONJW1zvobD3HLI-22" style="edgeStyle=none;rounded=0;orthogonalLoop=1;jettySize=auto;html=1;entryX=0;entryY=0.5;entryDx=0;entryDy=0;endArrow=none;endFill=0;" edge="1" parent="1" source="hCdRQzONJW1zvobD3HLI-1" target="hCdRQzONJW1zvobD3HLI-10">
          <mxGeometry relative="1" as="geometry" />
        </mxCell>
        <mxCell id="hCdRQzONJW1zvobD3HLI-1" value="Pengundi" style="shape=umlActor;verticalLabelPosition=bottom;verticalAlign=top;html=1;outlineConnect=0;" vertex="1" parent="1">
          <mxGeometry x="200" y="160" width="30" height="60" as="geometry" />
        </mxCell>
        <mxCell id="hCdRQzONJW1zvobD3HLI-2" value="e-voting sistem" style="shape=umlFrame;whiteSpace=wrap;html=1;" vertex="1" parent="1">
          <mxGeometry x="280" y="120" width="680" height="480" as="geometry" />
        </mxCell>
        <mxCell id="hCdRQzONJW1zvobD3HLI-16" style="edgeStyle=none;rounded=0;orthogonalLoop=1;jettySize=auto;html=1;endArrow=block;endFill=1;" edge="1" parent="1" source="hCdRQzONJW1zvobD3HLI-4" target="hCdRQzONJW1zvobD3HLI-13">
          <mxGeometry relative="1" as="geometry" />
        </mxCell>
        <mxCell id="hCdRQzONJW1zvobD3HLI-19" style="edgeStyle=none;rounded=0;orthogonalLoop=1;jettySize=auto;html=1;entryX=0;entryY=0.5;entryDx=0;entryDy=0;endArrow=none;endFill=0;" edge="1" parent="1" source="hCdRQzONJW1zvobD3HLI-4" target="hCdRQzONJW1zvobD3HLI-11">
          <mxGeometry relative="1" as="geometry" />
        </mxCell>
        <mxCell id="hCdRQzONJW1zvobD3HLI-20" style="edgeStyle=none;rounded=0;orthogonalLoop=1;jettySize=auto;html=1;entryX=0;entryY=0.5;entryDx=0;entryDy=0;endArrow=none;endFill=0;" edge="1" parent="1" source="hCdRQzONJW1zvobD3HLI-4" target="hCdRQzONJW1zvobD3HLI-12">
          <mxGeometry relative="1" as="geometry" />
        </mxCell>
        <mxCell id="hCdRQzONJW1zvobD3HLI-4" value="&lt;div&gt;Pentadbir &lt;br&gt;&lt;/div&gt;&lt;div&gt;sistem&lt;/div&gt;&lt;div&gt;&lt;br&gt;&lt;/div&gt;" style="shape=umlActor;verticalLabelPosition=bottom;verticalAlign=top;html=1;outlineConnect=0;" vertex="1" parent="1">
          <mxGeometry x="200" y="500" width="30" height="60" as="geometry" />
        </mxCell>
        <mxCell id="hCdRQzONJW1zvobD3HLI-7" value="&amp;lt;&amp;lt;include&amp;gt;&amp;gt;" style="rounded=0;orthogonalLoop=1;jettySize=auto;html=1;dashed=1;" edge="1" parent="1" source="hCdRQzONJW1zvobD3HLI-5" target="hCdRQzONJW1zvobD3HLI-6">
          <mxGeometry relative="1" as="geometry" />
        </mxCell>
        <mxCell id="hCdRQzONJW1zvobD3HLI-5" value="Log masuk" style="ellipse;whiteSpace=wrap;html=1;" vertex="1" parent="1">
          <mxGeometry x="360" y="280" width="120" height="80" as="geometry" />
        </mxCell>
        <mxCell id="hCdRQzONJW1zvobD3HLI-9" value="&amp;lt;&amp;lt;include&amp;gt;&amp;gt;" style="rounded=0;orthogonalLoop=1;jettySize=auto;html=1;dashed=1;" edge="1" parent="1" source="hCdRQzONJW1zvobD3HLI-6" target="hCdRQzONJW1zvobD3HLI-8">
          <mxGeometry relative="1" as="geometry" />
        </mxCell>
        <mxCell id="hCdRQzONJW1zvobD3HLI-6" value="Mengesahkan maklumat autentikasi" style="ellipse;whiteSpace=wrap;html=1;" vertex="1" parent="1">
          <mxGeometry x="590" y="280" width="120" height="80" as="geometry" />
        </mxCell>
        <mxCell id="hCdRQzONJW1zvobD3HLI-8" value="Menggunakan sistem" style="ellipse;whiteSpace=wrap;html=1;" vertex="1" parent="1">
          <mxGeometry x="820" y="280" width="120" height="80" as="geometry" />
        </mxCell>
        <mxCell id="hCdRQzONJW1zvobD3HLI-10" value="Membuat undian" style="ellipse;whiteSpace=wrap;html=1;" vertex="1" parent="1">
          <mxGeometry x="365" y="160" width="120" height="80" as="geometry" />
        </mxCell>
        <mxCell id="hCdRQzONJW1zvobD3HLI-11" value="Menambah calon" style="ellipse;whiteSpace=wrap;html=1;" vertex="1" parent="1">
          <mxGeometry x="360" y="400" width="120" height="80" as="geometry" />
        </mxCell>
        <mxCell id="hCdRQzONJW1zvobD3HLI-12" value="Mengira undian" style="ellipse;whiteSpace=wrap;html=1;" vertex="1" parent="1">
          <mxGeometry x="360" y="500" width="120" height="80" as="geometry" />
        </mxCell>
        <mxCell id="hCdRQzONJW1zvobD3HLI-21" style="edgeStyle=none;rounded=0;orthogonalLoop=1;jettySize=auto;html=1;entryX=0;entryY=0.5;entryDx=0;entryDy=0;endArrow=none;endFill=0;" edge="1" parent="1" source="hCdRQzONJW1zvobD3HLI-13" target="hCdRQzONJW1zvobD3HLI-5">
          <mxGeometry relative="1" as="geometry" />
        </mxCell>
        <mxCell id="hCdRQzONJW1zvobD3HLI-13" value="Pengguna" style="shape=umlActor;verticalLabelPosition=bottom;verticalAlign=top;html=1;outlineConnect=0;" vertex="1" parent="1">
          <mxGeometry x="200" y="320" width="30" height="60" as="geometry" />
        </mxCell>
        <mxCell id="hCdRQzONJW1zvobD3HLI-24" value="&amp;lt;&amp;lt;include&amp;gt;&amp;gt;" style="edgeStyle=none;rounded=0;orthogonalLoop=1;jettySize=auto;html=1;endArrow=classic;endFill=1;" edge="1" parent="1" source="hCdRQzONJW1zvobD3HLI-23" target="hCdRQzONJW1zvobD3HLI-12">
          <mxGeometry relative="1" as="geometry" />
        </mxCell>
        <mxCell id="hCdRQzONJW1zvobD3HLI-23" value="&lt;div&gt;Menamatkan &lt;br&gt;&lt;/div&gt;&lt;div&gt;undian&lt;/div&gt;" style="ellipse;whiteSpace=wrap;html=1;" vertex="1" parent="1">
          <mxGeometry x="580" y="500" width="120" height="80" as="geometry" />
        </mxCell>
      </root>
    </mxGraphModel>
  </diagram>
</mxfile>
